<mxfile host="app.diagrams.net" modified="2023-10-08T06:24:35.964Z" agent="Mozilla/5.0 (Windows NT 10.0; Win64; x64) AppleWebKit/537.36 (KHTML, like Gecko) Chrome/116.0.0.0 Safari/537.36 OPR/102.0.0.0" etag="bc1zTUTEKZC06wMpQFl5" version="22.0.4" type="google">
  <diagram name="Page-1" id="QjWveZgPfpErpzNJY5Rs">
    <mxGraphModel grid="1" page="1" gridSize="10" guides="1" tooltips="1" connect="1" arrows="1" fold="1" pageScale="1" pageWidth="850" pageHeight="1100" math="0" shadow="0">
      <root>
        <mxCell id="0" />
        <mxCell id="1" parent="0" />
        <mxCell id="Y15epPES3mHimbvz0Tlg-3" style="edgeStyle=orthogonalEdgeStyle;rounded=0;orthogonalLoop=1;jettySize=auto;html=1;entryX=0.5;entryY=0;entryDx=0;entryDy=0;" edge="1" parent="1" source="Y15epPES3mHimbvz0Tlg-1" target="Y15epPES3mHimbvz0Tlg-2">
          <mxGeometry relative="1" as="geometry" />
        </mxCell>
        <mxCell id="Y15epPES3mHimbvz0Tlg-1" value="bắt đầu" style="ellipse;whiteSpace=wrap;html=1;" vertex="1" parent="1">
          <mxGeometry x="365" y="20" width="120" height="80" as="geometry" />
        </mxCell>
        <mxCell id="Y15epPES3mHimbvz0Tlg-5" style="edgeStyle=orthogonalEdgeStyle;rounded=0;orthogonalLoop=1;jettySize=auto;html=1;entryX=0.5;entryY=0;entryDx=0;entryDy=0;" edge="1" parent="1" source="Y15epPES3mHimbvz0Tlg-2" target="Y15epPES3mHimbvz0Tlg-4">
          <mxGeometry relative="1" as="geometry" />
        </mxCell>
        <mxCell id="Y15epPES3mHimbvz0Tlg-2" value="nhập vào X và N" style="shape=parallelogram;perimeter=parallelogramPerimeter;whiteSpace=wrap;html=1;fixedSize=1;" vertex="1" parent="1">
          <mxGeometry x="365" y="160" width="120" height="60" as="geometry" />
        </mxCell>
        <mxCell id="Y15epPES3mHimbvz0Tlg-7" style="edgeStyle=orthogonalEdgeStyle;rounded=0;orthogonalLoop=1;jettySize=auto;html=1;entryX=0.5;entryY=0;entryDx=0;entryDy=0;" edge="1" parent="1" source="Y15epPES3mHimbvz0Tlg-4" target="Y15epPES3mHimbvz0Tlg-6">
          <mxGeometry relative="1" as="geometry" />
        </mxCell>
        <mxCell id="Y15epPES3mHimbvz0Tlg-4" value="tính giai thừa&lt;br&gt;tinhGiaiThua (){&lt;br&gt;while N &amp;gt; 0&lt;br&gt;ketQua = X*X&amp;nbsp;&lt;br&gt;}" style="rounded=0;whiteSpace=wrap;html=1;" vertex="1" parent="1">
          <mxGeometry x="365" y="290" width="120" height="90" as="geometry" />
        </mxCell>
        <mxCell id="Y15epPES3mHimbvz0Tlg-6" value="xuất ra ketQua" style="shape=parallelogram;perimeter=parallelogramPerimeter;whiteSpace=wrap;html=1;fixedSize=1;" vertex="1" parent="1">
          <mxGeometry x="365" y="470" width="120" height="60" as="geometry" />
        </mxCell>
      </root>
    </mxGraphModel>
  </diagram>
</mxfile>
